<svg width="32" height="32" viewBox="0 0 32 32" fill="none" xmlns="http://www.w3.org/2000/svg">
    <circle cx="16" cy="16" r="16" fill="black" />
    <path
        d="M26 12.25C26 14.3211 24.3211 16 22.25 16C20.1789 16 18.5 14.3211 18.5 12.25C18.5 10.1789 20.1789 8.5 22.25 8.5C24.3211 8.5 26 10.1789 26 12.25Z"
        fill="white" />
    <path
        d="M13.5 12.25C13.5 14.3211 11.8211 16 9.75 16C7.67893 16 6 14.3211 6 12.25C6 10.1789 7.67893 8.5 9.75 8.5C11.8211 8.5 13.5 10.1789 13.5 12.25Z"
        fill="white" />
    <rect x="6" y="22" width="20" height="2.5" rx="1.25" fill="white" />
    <line x1="19.5" y1="22" x2="19.5" y2="24.5" stroke="black" />
    <line x1="23" y1="22" x2="23" y2="24.5" stroke="black" />
    <line x1="12.5" y1="22" x2="12.5" y2="24.5" stroke="black" />
    <line x1="9" y1="22" x2="9" y2="24.5" stroke="black" />
    <line x1="16" y1="22" x2="16" y2="24.5" stroke="black" />
</svg>